<?xml version="1.0" encoding="UTF-8"?>
<svg width="196px" height="120px" viewBox="0 0 196 120" version="1.1" xmlns="http://www.w3.org/2000/svg" xmlns:xlink="http://www.w3.org/1999/xlink">
    <!-- Generator: Sketch 54.1 (76490) - https://sketchapp.com -->
    <title>logo/yellow</title>
    <desc>Created with Sketch.</desc>
    <defs>
        <polygon id="path-1" points="0.22194 0.45186 38.34774 0.45186 38.34774 37.8 0.22194 37.8"></polygon>
        <polygon id="path-3" points="0.54066 0.329052991 40.593 0.329052991 40.593 38.82198 0.54066 38.82198"></polygon>
    </defs>
    <g id="Page-1" stroke="none" stroke-width="1" fill="none" fill-rule="evenodd">
        <g id="Artboard" transform="translate(-542.000000, -38.000000)">
            <g id="logo/black" transform="translate(542.000000, 38.000000)">
                <g id="Group-19">
                    <path d="M61.70244,33.34776 C63.19044,31.69176 64.90284,30.88716 66.93564,30.88716 C68.96784,30.88716 70.67904,31.69176 72.15744,33.33516 C73.69404,35.06736 74.44104,37.11036 74.44104,39.58356 C74.44104,42.05496 73.69404,44.09856 72.15744,45.83076 C70.67004,47.50536 68.96244,48.31836 66.93564,48.31836 C64.90944,48.31836 63.20004,47.50476 61.70244,45.81876 C60.14604,44.08776 59.38944,42.04836 59.38944,39.58356 C59.38944,37.11696 60.14604,35.07816 61.70244,33.34776 M114.61284,33.34776 C116.10084,31.69176 117.81204,30.88716 119.84484,30.88716 C121.87764,30.88716 123.58944,31.69176 125.06604,33.33516 C126.60384,35.06736 127.35024,37.11036 127.35024,39.58356 C127.35024,42.05496 126.60384,44.09856 125.06604,45.83076 C123.57984,47.50536 121.87164,48.31836 119.84484,48.31836 C117.81804,48.31836 116.11044,47.50476 114.61284,45.81876 C113.05584,44.08776 112.29864,42.04836 112.29864,39.58356 C112.29864,37.11696 113.05584,35.07816 114.61284,33.34776 M65.68164,63.33456 C66.07644,63.33456 66.49404,63.32196 66.92544,63.29856 C67.31484,63.32196 67.71084,63.33456 68.10804,63.33456 C74.64204,63.33456 80.28024,60.98796 84.85464,56.37396 C87.20784,54.03216 88.96524,51.41556 90.12804,48.54756 L96.60024,48.54516 C97.75464,51.41136 99.50124,54.02736 101.83824,56.36856 C106.45044,60.99096 112.08744,63.33456 118.59084,63.33456 C118.98564,63.33456 119.40324,63.32196 119.83524,63.29856 C120.22404,63.32196 120.62004,63.33456 121.01724,63.33456 C127.55124,63.33456 133.19004,60.98796 137.76504,56.37396 C142.38204,51.77796 144.72264,46.12836 144.72264,39.58356 C144.72264,33.09456 142.38324,27.46056 137.77584,22.84416 C133.18944,18.21756 127.55124,15.87156 121.01724,15.87156 C120.61584,15.87156 120.21984,15.88356 119.83524,15.90816 C119.40864,15.88356 118.98984,15.87156 118.59084,15.87156 C112.08804,15.87156 106.45104,18.21576 101.83224,22.84416 C99.29184,25.40556 97.44924,28.27896 96.30804,31.43496 L90.42444,31.43736 C89.27664,28.27896 87.42144,25.40496 84.86664,22.84416 C80.27904,18.21756 74.64144,15.87156 68.10804,15.87156 C67.70664,15.87156 67.31004,15.88356 66.92544,15.90816 C66.49884,15.88356 66.08124,15.87156 65.68164,15.87156 C59.17884,15.87156 53.54124,18.21576 48.92304,22.84416 C44.34024,27.46416 42.01584,33.09696 42.01584,39.58356 C42.01584,46.12656 44.34204,51.77316 48.92844,56.36856 C53.54064,60.99096 59.17764,63.33456 65.68164,63.33456" id="Fill-1" fill="#000000"></path>
                    <path d="M164.2374,38.92122 C164.2374,37.24242 164.5422,35.71842 165.1344,34.41222 C165.6834,33.22962 166.359,32.44062 167.1606,32.05842 C168.3726,31.47102 169.5306,31.18422 170.7006,31.18422 C171.6144,31.18422 172.5516,31.36782 173.4852,31.72902 C174.993,32.31282 175.9938,33.03762 176.4654,33.88662 L176.4654,43.71582 C176.385,46.69542 175.083,47.52462 173.8188,47.94162 C172.7868,48.28362 171.7644,48.37542 170.7498,48.21702 L170.3502,48.18522 C169.344,48.18522 167.8206,47.94762 166.2408,45.91902 C164.8926,44.13762 164.2374,42.01182 164.2374,39.42042 L164.2374,38.92122 Z M169.2594,63.31782 C172.227,63.31782 175.0866,62.73642 177.792,61.58562 C177.8646,61.66542 177.9402,61.74462 178.0182,61.82202 C179.0058,62.80122 180.2886,63.31782 181.7256,63.31782 L189.618,63.31782 C191.004,63.31782 192.2712,62.81742 193.2792,61.86942 L193.3302,61.82142 C194.3442,60.81462 194.88,59.52942 194.88,58.10262 L194.88,9.04362 C194.88,6.57642 193.9764,4.42962 192.1944,2.66082 C190.4106,0.89502 188.2452,0.00042 185.7564,0.00042 L185.589,0.00042 C183.0984,0.00042 180.9318,0.89502 179.1498,2.66262 C177.3684,4.42962 176.4654,6.57642 176.4654,9.04362 L176.4654,17.36562 C174.1566,16.55562 171.7464,16.14702 169.2594,16.14702 C162.9834,16.14702 157.5552,18.48522 153.1236,23.09682 C148.7238,27.67302 146.493,33.27702 146.493,39.75342 C146.493,46.20282 148.7238,51.79242 153.123,56.36742 C157.554,60.98022 162.9828,63.31782 169.2594,63.31782 L169.2594,63.31782 Z" id="Fill-3" fill="#000000"></path>
                    <path d="M42.2745,71.11554 L42.1131,71.11554 C39.7341,71.11554 37.5747,71.83194 35.6973,73.24374 C33.8253,74.65014 32.5407,76.50054 31.8789,78.75234 L26.4873,97.48674 L20.9997,78.73014 C20.3631,76.47114 19.0701,74.61954 17.1801,73.24434 C15.3009,71.83194 13.1529,71.11554 10.7961,71.11554 L10.6341,71.11554 C7.7025,71.11554 5.1699,72.14934 3.1077,74.18754 C1.0455,76.22634 0.0003,78.72834 0.0003,81.62574 L0.0003,111.97254 C0.0003,113.76234 0.6819,115.37154 1.9737,116.62674 C3.2427,117.90294 4.8705,118.57794 6.6831,118.57794 L6.7803,118.57794 C8.6151,118.57794 10.2099,117.92154 11.5209,116.62614 C12.7911,115.36914 13.4619,113.75994 13.4619,111.97254 L13.4619,98.65494 L17.2701,111.76554 C17.8425,113.78874 18.9927,115.44474 20.6715,116.67414 C22.3569,117.93774 24.2751,118.57794 26.3733,118.57794 L26.5035,118.57794 C28.6011,118.57794 30.5187,117.93774 32.1885,116.68614 C33.8835,115.44354 35.0331,113.78814 35.6013,111.78054 L39.4455,98.59974 L39.4455,111.97254 C39.4455,113.75934 40.1175,115.36914 41.3883,116.62614 C42.6789,117.90294 44.3187,118.57794 46.1295,118.57794 L46.2261,118.57794 C48.0459,118.57794 49.6803,117.89814 50.9187,116.64174 C52.2207,115.38354 52.9095,113.76954 52.9095,111.97254 L52.9095,81.62574 C52.9095,78.72834 51.8631,76.22634 49.8015,74.18754 C47.7381,72.14934 45.2067,71.11554 42.2745,71.11554" id="Fill-5" fill="#000000"></path>
                    <g id="Group-9" transform="translate(55.800000, 81.556200)">
                        <mask id="mask-2" fill="white">
                            <use xlink:href="#path-1"></use>
                        </mask>
                        <g id="Clip-8"></g>
                        <path d="M23.83794,22.27926 C23.77374,24.62106 22.73934,25.28886 21.75114,25.62606 C20.93934,25.89546 20.13414,25.96866 19.33374,25.84266 L19.01934,25.81866 C18.22614,25.81866 17.02554,25.63026 15.78054,24.02406 C14.71914,22.61466 14.20254,20.93046 14.20254,18.87906 L14.20254,18.48366 C14.20254,17.15346 14.44314,15.94806 14.91054,14.91546 C15.34374,13.97646 15.87534,13.35126 16.50594,13.05066 C17.46054,12.58506 18.37374,12.35886 19.29654,12.35886 C20.01594,12.35886 20.75454,12.50346 21.49074,12.78906 C22.67754,13.25106 23.46594,13.82526 23.83794,14.49786 L23.83794,22.27926 Z M32.41614,1.47306 L29.70414,1.47306 C28.11474,1.47306 26.68014,2.06586 25.55754,3.18486 C25.54194,3.20046 25.52514,3.21666 25.50894,3.23346 C23.67174,1.40286 21.18474,0.45186 18.15954,0.45186 C13.21734,0.45186 8.93934,2.30346 5.44554,5.95566 C1.97874,9.58026 0.22194,14.01666 0.22194,19.14186 C0.22194,24.24666 1.97874,28.67346 5.44554,32.29746 C8.93874,35.94846 13.21674,37.80006 18.15954,37.80006 C19.85694,37.80006 21.92214,36.97326 24.66054,35.19786 C24.79554,35.11086 24.91254,35.07366 25.05234,35.07366 C25.09434,35.07366 25.13574,35.07666 25.16814,35.08026 C25.31694,35.10006 25.48314,35.14806 25.66854,35.34126 C27.25134,37.04166 28.53654,37.80006 29.83554,37.80006 L34.20234,37.80006 C35.30514,37.80006 36.30894,37.38546 37.10574,36.60126 C37.91814,35.82486 38.34774,34.81206 38.34774,33.67086 L38.34774,7.34886 C38.34774,5.76666 37.74174,4.32666 36.59574,3.18606 C35.47134,2.06586 34.02594,1.47306 32.41614,1.47306 L32.41614,1.47306 Z" id="Fill-7" fill="#000000" mask="url(#mask-2)"></path>
                    </g>
                    <path d="M123.52938,82.90872 C122.79918,81.96552 121.73538,81.44592 120.52758,81.44532 C119.06478,81.44472 117.33978,81.31272 115.83978,81.59592 C114.36078,81.87492 113.16858,82.85292 111.96858,83.70792 C111.62478,83.94852 111.28758,84.23652 110.95518,84.57312 C109.48878,83.16252 107.84658,82.44972 106.05258,82.44972 L105.89178,82.44972 C104.00418,82.44972 102.36078,83.13192 100.97478,84.50712 C99.65058,85.88172 98.97918,87.54852 98.97918,89.46192 L98.97918,111.59832 C98.97918,113.49912 99.65598,115.14912 100.97478,116.48952 C102.31278,117.87492 103.95618,118.57812 105.85998,118.57812 L105.95658,118.57812 C107.85978,118.57812 109.50198,117.87492 110.82378,116.50512 C112.15938,115.15212 112.83618,113.50092 112.83618,111.59832 L112.83618,97.93152 L112.86318,97.93332 C112.88178,97.66452 112.90818,97.49592 112.92738,97.39632 C113.05878,96.71832 113.76318,95.87352 114.90618,95.02212 C116.05038,94.17672 117.13698,93.76572 118.22718,93.76572 C118.46178,93.76572 118.69998,93.78552 118.89438,93.81552 C119.14038,93.86172 119.38578,93.88512 119.62338,93.88512 C120.83718,93.88512 122.95758,93.30612 123.57018,89.44572 L124.29318,86.16372 C124.54638,84.99972 124.27458,83.84532 123.52938,82.90872" id="Fill-10" fill="#000000"></path>
                    <path d="M152.64522,84.26694 C151.87902,83.26314 150.87882,82.58154 149.66862,82.24314 C147.85362,81.73974 145.96362,81.48354 144.05202,81.48354 C138.60522,81.48354 133.88442,83.29074 130.02582,86.85174 C126.09102,90.46194 124.09602,94.90194 124.09602,100.04754 C124.09602,105.17154 126.09102,109.60014 130.02102,113.20554 C133.88382,116.77074 138.60402,118.57854 144.05202,118.57854 C145.96122,118.57854 147.85062,118.32294 149.62302,117.83034 C150.86202,117.51894 151.88502,116.82534 152.67042,115.76154 C153.40302,114.75654 153.77442,113.60934 153.77442,112.35054 L153.77442,112.25274 C153.77442,110.53434 153.08142,109.03254 151.76562,107.90694 C150.44922,106.78614 148.90962,106.33494 147.18942,106.60554 C146.29242,106.75014 145.46862,106.77954 144.74562,106.69254 L144.50802,106.67814 C142.79262,106.67814 141.36462,106.03314 140.12502,104.68554 C138.85002,103.33794 138.23022,101.73474 138.23022,99.78594 L138.23022,99.39294 C138.23022,98.11794 138.50742,97.00794 139.08702,95.98194 C139.61742,95.02194 140.28462,94.39494 141.13362,94.06194 C143.02302,93.31434 145.01142,93.15474 146.83602,93.53034 C148.58202,93.92754 150.23442,93.54954 151.66302,92.41434 C153.04422,91.29174 153.77442,89.75574 153.77442,87.97314 L153.77442,87.71154 C153.77442,86.48634 153.40902,85.34694 152.68842,84.32634 L152.64522,84.26694 Z" id="Fill-12" fill="#000000"></path>
                    <g id="Group-16" transform="translate(155.400000, 79.756200)">
                        <mask id="mask-4" fill="white">
                            <use xlink:href="#path-3"></use>
                        </mask>
                        <g id="Clip-15"></g>
                        <path d="M24.78306,24.62658 C23.58726,25.98438 22.21386,26.64378 20.58306,26.64378 C18.95286,26.64378 17.57886,25.98378 16.37406,24.61698 C15.12186,23.21298 14.51406,21.55878 14.51406,19.56018 C14.51406,17.56098 15.12186,15.90618 16.37406,14.50278 C17.57106,13.16058 18.94746,12.50838 20.58306,12.50838 C22.21806,12.50838 23.59446,13.16058 24.78306,14.49258 C26.01966,15.89778 26.62026,17.55498 26.62026,19.56018 C26.62026,21.56418 26.01966,23.22198 24.78306,24.62658 M35.00586,5.98518 C30.85266,1.78878 24.93366,0.23118 19.19586,0.33378 C14.22426,0.42258 9.60786,2.43618 6.09546,5.98518 C2.40966,9.73218 0.54066,14.29938 0.54066,19.56018 C0.54066,24.86598 2.41086,29.44518 6.09966,33.17238 C9.84306,36.95418 15.27006,39.08838 20.57526,38.79198 C20.88786,38.81238 21.20706,38.82198 21.52626,38.82198 C26.78166,38.82198 31.31706,36.91878 34.99626,33.17718 C38.71026,29.44878 40.59306,24.86778 40.59306,19.56018 C40.59306,14.29818 38.71086,9.72918 35.00586,5.98518" id="Fill-14" fill="#000000" mask="url(#mask-4)"></path>
                    </g>
                    <path d="M32.68326,23.59776 L18.06186,23.59776 L18.06186,18.11016 L32.52366,18.11016 C34.27566,18.11016 35.85006,17.54256 37.16766,16.45116 C38.52786,15.36816 39.40086,13.95996 39.76866,12.23136 L39.80226,12.05916 C40.30026,9.78996 39.79986,7.63776 38.37066,5.85336 C36.92046,4.00356 34.91346,3.02556 32.56386,3.02556 L10.60986,3.02556 C7.70646,3.02556 5.18526,4.07916 3.11766,6.15636 C1.04826,8.23416 6e-05,10.77816 6e-05,13.71936 L6e-05,54.31056 C6e-05,56.80176 0.88746,58.95396 2.63706,60.70956 C4.36086,62.43996 6.49206,63.31836 8.97006,63.31836 L9.09066,63.31836 C11.56866,63.31836 13.69926,62.43996 15.42306,60.71016 C17.17446,58.95276 18.06186,56.79996 18.06186,54.31056 L18.06186,38.56116 L32.68326,38.56116 C34.68186,38.56116 36.48486,37.81176 37.87326,36.41796 C39.32706,34.99716 40.09566,33.16536 40.09566,31.11936 L40.09566,31.03896 C40.09566,29.03316 39.33546,27.20976 37.89666,25.76436 C36.48546,24.34716 34.68186,23.59776 32.68326,23.59776" id="Fill-17" fill="#000000"></path>
                </g>
            </g>
        </g>
    </g>
</svg>